# AST/ASF file generated using VICON BodyLanguage
# -----------------------------------------------
:version 1.10
:name VICON
:units
  mass 1.0
  length 0.45
  angle deg
:documentation
   .ast/.asf automatically generated from VICON data using
   VICON BodyBuilder and BodyLanguage model FoxedUp or BRILLIANT.MOD
:root
   order TX TY TZ RX RY RZ
   axis XYZ
   position 0 0 0  
   orientation 0 0 0 
:bonedata
  begin
     id 1 
     name lhipjoint
     direction 0.714689 -0.624256 0.315473 
     length 2.45343 
     axis 0 0 0  XYZ
  end
  begin
     id 2 
     name lfemur
     direction 0.34202 -0.939693 0  
     length 6.59069  
     axis 0 0 20  XYZ
    dof rx ry rz
    limits (-160.0 20.0)
           (-70.0 70.0)
           (-60.0 70.0)
  end
  begin
     id 3 
     name ltibia
     direction 0.34202 -0.939693 0   
     length 6.73476   
     axis 0 0 20   XYZ
    dof rx
    limits (-10.0 170.0)
  end
  begin
     id 4 
     name lfoot
     direction 0.0718085 -0.197292 0.977711   
     length 1.52607   
     axis -90 7.62852e-016 20   XYZ
    dof rx rz
    limits (-45.0 90.0)
           (-70.0 20.0)
  end
  begin
     id 5 
     name ltoes
     direction 1.53553e-011 -4.22024e-011 1   
     length 0.777832   
     axis -90 7.62852e-016 20   XYZ
    dof rx
    limits (-90.0 20.0)
  end
  begin
     id 6 
     name rhipjoint
     direction -0.727419 -0.612432 0.309497   
     length 2.50079  
     axis 0 0 0  XYZ 
  end
  begin
     id 7 
     name rfemur
     direction -0.34202 -0.939693 0   
     length 6.51665   
     axis 0 0 -20   XYZ
    dof rx ry rz
    limits (-160.0 20.0)
           (-70.0 70.0)
           (-70.0 60.0)
  end
  begin
     id 8 
     name rtibia
     direction -0.34202 -0.939693 0   
     length 6.48919   
     axis 0 0 -20   XYZ
    dof rx
    limits (-10.0 170.0)
 end
 begin
     id 9 
     name rfoot
     direction -0.112205 -0.308282 0.944655   
     length 1.68717  
     axis -90 -7.62852e-016 -20   XYZ
    dof rx rz
    limits (-45.0 90.0)
           (-20.0 70.0)
  end
  begin
     id 10 
     name rtoes
     direction -1.53583e-011 -4.21993e-011 1   
     length 0.846859   
     axis -90 -7.62852e-016 -20   XYZ
    dof rx
    limits (-90.0 20.0)
  end
  begin
     id 11 
     name lowerback
     direction -0.00119603 0.996364 -0.0851956   
     length 1.67242   
     axis 0 0 0   XYZ
    dof rx ry rz
    limits (-20.0 45.0)
           (-30.0 30.0)
           (-30.0 30.0)
  end
  begin
     id 12 
     name upperback
     direction -0.00531001 0.998318 0.0577248   
     length 1.64819   
     axis 0 0 0   XYZ
    dof rx ry rz
    limits (-20.0 45.0)
           (-30.0 30.0)
           (-30.0 30.0)
  end
  begin
     id 13 
     name thorax
     direction -0.00653676 0.995132 0.0983291   
     length 1.67429   
     axis 0 0 0   XYZ
    dof rx ry rz
    limits (-20.0 45.0)
           (-30.0 30.0)
           (-30.0 30.0)
  end
  begin
     id 14 
     name lowerneck
     direction 0.0141424 0.999886 0.00525412   
     length 1.59623   
     axis 0 0 0   XYZ
    dof rx ry rz
    limits (-20.0 45.0)
           (-30.0 30.0)
           (-30.0 30.0)
  end
  begin
     id 15 
     name upperneck
     direction -0.0640064 0.987178 -0.146232   
     length 1.59576   
     axis 0 0 0   XYZ
    dof rx ry rz
    limits (-20.0 45.0)
           (-30.0 30.0)
           (-30.0 30.0)
  end
  begin
     id 16
     name head
     direction -0.0222942 0.998496 -0.0500859  
     length 1.60959  
     axis 0 0 0   XYZ
    dof rx ry rz
    limits (-20.0 45.0)
           (-30.0 30.0)
           (-30.0 30.0)
  end
  begin
     id 17 
     name lclavicle
     direction 0.908549 0.392612 0.142806  
     length 2.80649  
     axis 0 0 0   XYZ
    dof ry rz
    limits (-20.0 10.0)
           (0.0 20.0)
  end
  begin
     id 18 
     name lhumerus
     direction 1 -4.48968e-011 1.08832e-028   
     length 4.2884   
     axis -180 -30 -90   XYZ
    dof rx ry rz
    limits (-60.0 90.0)
           (-90.0 90.0)
           (-90.0 90.0)
  end
  begin
     id 19
     name lradius
     direction 1 -4.48952e-011 -3.02642e-028   
     length 3.06552   
     axis -180 -30 -90   XYZ
    dof rx
    limits (-10.0 170.0)
  end
  begin
     id 20
     name lwrist
     direction 1 -4.49014e-011 1.58672e-027   
     length 1.53276   
     axis -1.65735e-015 90 90   XYZ
    dof ry
    limits (-180.0 0.0)
 end
  begin
     id 21 
     name lhand
     direction 1 -4.48928e-011 3.17344e-027   
     length 0.753045   
     axis -2.02492e-015 90 90   XYZ
    dof rx rz
    limits (-90.0 90.0)
           (-45.0 45.0)
  end
  begin
     id 22 
     name lfingers
     direction 1 -4.48958e-011 6.34687e-027   
     length 0.607124   
     axis -4.04985e-015 90 90   XYZ
    dof rx
    limits (0.0 90.0)
  end
  begin
     id 23
     name lthumb
     direction 0.707107 -6.34905e-011 0.707107   
     length 0.871712   
     axis -90 45 2.85299e-015   XYZ
    dof rx rz
    limits (-45.0 45.0)
           (-45.0 45.0)
  end
  begin
     id 24 
     name rclavicle
     direction -0.885098 0.45949 0.0739604   
     length 2.9478  
     axis 0 0 0   XYZ 
    dof ry rz
    limits (-10.0 20.0)
           (-20.0 0.0)
  end
  begin
     id 25 
     name rhumerus
     direction -1 -4.4898e-011 -2.61739e-027  
     length 4.52172   
     axis -180 30 90   XYZ
    dof rx ry rz
    limits (-90.0 60.0)
           (-90.0 90.0)
           (-90.0 90.0)
  end
  begin
     id 26 
     name rradius
     direction -1 -4.48945e-011 9.02552e-028   
     length 2.8914   
     axis -180 30 90   XYZ
    dof rx
    limits (-10.0 170.0)
  end
  begin
     id 27 
     name rwrist
     direction -1 -4.49018e-011 1.58672e-027   
     length 1.4457   
     axis -1.65735e-015 -90 -90   XYZ
    dof ry
    limits (-180.0 0.0)
  end
  begin
     id 28
     name rhand
     direction -1 -4.48825e-011 3.17344e-027   
     length 0.680541   
     axis -2.02492e-015 -90 -90   XYZ
    dof rx rz
    limits (-90.0 90.0)
           (-45.0 45.0)
  end
  begin
     id 29
     name rfingers
     direction -1 -4.49067e-011 6.34687e-027   
     length 0.54867   
     axis -4.04985e-015 -90 -90   XYZ
    dof rx
    limits (0.0 90.0)
  end
  begin
     id 30
     name rthumb
     direction -0.707107 -6.34833e-011 0.707107   
     length 0.787783   
     axis -90 -45 -2.85299e-015   XYZ
    dof rx rz
    limits (-45.0 45.0)
           (-45.0 45.0)
  end
:hierarchy
  begin
    root lhipjoint rhipjoint lowerback
    lhipjoint lfemur
    lfemur ltibia
    ltibia lfoot
    lfoot ltoes
    rhipjoint rfemur
    rfemur rtibia
    rtibia rfoot
    rfoot rtoes
    lowerback upperback
    upperback thorax
    thorax lowerneck lclavicle rclavicle
    lowerneck upperneck
    upperneck head
    lclavicle lhumerus
    lhumerus lradius
    lradius lwrist
    lwrist lhand lthumb
    lhand lfingers
    rclavicle rhumerus
    rhumerus rradius
    rradius rwrist
    rwrist rhand rthumb
    rhand rfingers
  end

#!OML:ASF E:\emotionWalksFemale\Project 1\Capture day 1\Session 1\Female1.ASF
:FULLY-SPECIFIED
:DEGREES
188
root 5.71492 15.4255 21.9139 -175.336 -12.0785 -529.85
lowerback 18.1284 2.07425 -2.82893
upperback -2.98027 2.37851 2.10428
thorax -13.8285 1.4259 3.27519
lowerneck -6.68582 -9.11019 -12.0724
upperneck -4.8109 -11.8538 17.2196
head 1.5093 -5.97082 6.63507
rclavicle -1.17283e-014 -5.56597e-015
rhumerus -42.0494 30.8799 -106.807
rradius 69.1109
rwrist 5.1396
rhand 6.76732 -56.8832
rfingers 7.12502
rthumb 32.0542 -444.078
lclavicle -1.17283e-014 -5.56597e-015
lhumerus -29.1156 7.46437 69.9916
lradius 27.3288
lwrist -40.8041
lhand 19.9898 -34.5854
lfingers 7.12502
lthumb 44.5255 -10.9014
rfemur -23.2007 -11.0931 33.507
rtibia 45.0422
rfoot -19.7024 -19.8361
rtoes -12.8217
lfemur -23.0047 -18.94 -7.48523
ltibia 38.5109
lfoot -23.4489 13.5836
ltoes -56.4634
189
root 5.65349 15.3785 21.9385 -175.385 -12.4928 -529.877
lowerback 18.2391 1.95879 -2.72943
upperback -3.02395 2.24168 2.07615
thorax -13.9277 1.35557 3.22631
lowerneck -6.07692 -9.10799 -11.7829
upperneck -5.60344 -11.8683 17.1338
head 1.1584 -6.03718 6.61148
rclavicle 5.02925e-014 -3.97569e-015
rhumerus -40.7136 29.7979 -105.962
rradius 65.2352
rwrist 6.88797
rhand 5.61722 -57.5834
rfingers 7.12502
rthumb 30.9585 -444.993
lclavicle 5.02925e-014 -3.97569e-015
lhumerus -29.8296 6.71087 71.1279
lradius 26.99
lwrist -42.6457
lhand 19.5187 -35.0302
lfingers 7.12502
lthumb 44.0864 -11.1797
rfemur -23.6318 -11.9119 33.7982
rtibia 45.6291
rfoot -20.1895 -19.0513
rtoes -13.2489
lfemur -23.1214 -18.5353 -7.89066
ltibia 38.6181
lfoot -24.1732 13.4784
ltoes -56.4639
190
root 5.58416 15.3292 21.9682 -174.938 -12.8183 -530.239
lowerback 17.8789 1.8667 -2.72664
upperback -3.15732 2.11038 1.89706
thorax -13.8482 1.28936 3.06569
lowerneck -5.29357 -9.10703 -11.9179
upperneck -6.62596 -11.8744 17.5449
head 0.776625 -6.11558 6.82588
rclavicle -3.71727e-014 -2.94201e-014
rhumerus -39.3792 28.6003 -105.125
rradius 61.3284
rwrist 8.72265
rhand 4.03058 -58.0643
rfingers 7.12502
rthumb 29.4449 -445.751
lclavicle -3.71727e-014 -2.94201e-014
lhumerus -30.2988 5.5533 72.5428
lradius 26.5693
lwrist -43.7271
lhand 19.0219 -34.816
lfingers 7.12502
lthumb 43.6228 -10.7938
rfemur -24.5935 -12.3683 33.7565
rtibia 46.2457
rfoot -20.6664 -18.3824
rtoes -13.4682
lfemur -24.092 -17.9926 -8.64991
ltibia 39.3467
lfoot -24.6361 13.1965
ltoes -55.934
191
root 5.51578 15.285 21.9936 -174.256 -12.9236 -530.875
lowerback 17.1891 1.92366 -3.06974
upperback -3.23773 2.10316 1.65829
thorax -13.5323 1.30187 3.00314
lowerneck -4.62648 -9.14919 -12.4315
upperneck -7.56942 -11.9231 18.2909
head 0.49407 -6.20878 7.19587
rclavicle -5.36719e-015 3.89618e-014
rhumerus -37.9449 27.2483 -104.071
rradius 57.7241
rwrist 10.579
rhand 3.69053 -59.5693
rfingers 7.12502
rthumb 29.1202 -447.312
lclavicle -5.36719e-015 3.89618e-014
lhumerus -30.5026 4.35354 74.1276
lradius 26.1734
lwrist -44.3167
lhand 19.1261 -34.3407
lfingers 7.12502
lthumb 43.7201 -10.3542
rfemur -25.7306 -12.2664 33.4109
rtibia 46.8965
rfoot -21.0364 -17.8189
rtoes -14.2932
lfemur -25.4318 -17.5981 -9.55925
ltibia 40.4305
lfoot -24.9996 12.84
ltoes -55.0694
192
root 5.45359 15.2418 22.0177 -173.229 -13.1041 -531.677
lowerback 16.1366 1.95802 -3.66041
upperback -3.34088 2.03521 1.45976
thorax -13.0334 1.30452 3.15162
lowerneck -4.42763 -9.30142 -12.8304
upperneck -8.11939 -12.1027 18.6388
head 0.383711 -6.32747 7.3808
rclavicle -9.93923e-016 -3.10104e-014
rhumerus -36.9254 26.542 -103.34
rradius 54.6384
rwrist 9.80234
rhand -0.631292 -61.2192
rfingers 7.12502
rthumb 24.9856 -449.605
lclavicle -9.93923e-016 -3.10104e-014
lhumerus -30.6798 3.44135 75.6285
lradius 25.7502
lwrist -44.9816
lhand 17.9522 -34.6951
lfingers 7.12502
lthumb 42.6228 -10.3172
rfemur -27.2209 -11.771 32.907
rtibia 47.519
rfoot -21.5045 -17
rtoes -14.6494
lfemur -27.2125 -17.2952 -10.3954
ltibia 41.5123
lfoot -25.0484 12.3994
ltoes -54.5128
193
root 5.39605 15.1966 22.0464 -172.165 -13.5068 -532.439
lowerback 15.1239 1.95501 -4.19533
upperback -3.49988 1.93935 1.2704
thorax -12.6173 1.28912 3.28568
lowerneck -4.18805 -9.50028 -12.8703
upperneck -8.59687 -12.3588 18.6042
head 0.245978 -6.48003 7.38475
rclavicle 6.08281e-014 4.69132e-014
rhumerus -36.1582 24.9005 -102.166
rradius 52.2302
rwrist 11.4739
rhand -1.04179 -63.0655
rfingers 7.12502
rthumb 24.5922 -628.494
lclavicle 6.08281e-014 4.69132e-014
lhumerus -30.8726 2.54166 77.048
lradius 25.3551
lwrist -45.778
lhand 15.3512 -35.6397
lfingers 7.12502
lthumb 40.1821 -10.4689
rfemur -28.7454 -11.3491 32.446
rtibia 47.9294
rfoot -21.9411 -16.181
rtoes -14.4138
lfemur -28.9812 -17.0534 -11.0912
ltibia 42.3202
lfoot -25.0825 11.5243
ltoes -54.0543
